<svg width="17" height="18" viewBox="0 0 17 18" fill="none" xmlns="http://www.w3.org/2000/svg">
<path d="M17 12.0638C17 12.2162 16.9403 12.3623 16.834 12.47C16.7278 12.5778 16.5836 12.6383 16.4333 12.6383H13.9778V14.5532H15.6778C15.8281 14.5532 15.9722 14.6137 16.0785 14.7214C16.1847 14.8292 16.2444 14.9753 16.2444 15.1277C16.2444 15.28 16.1847 15.4261 16.0785 15.5339C15.9722 15.6416 15.8281 15.7021 15.6778 15.7021H13.9778V17.4255C13.9778 17.5779 13.9181 17.724 13.8118 17.8317C13.7055 17.9395 13.5614 18 13.4111 18C13.2608 18 13.1167 17.9395 13.0104 17.8317C12.9041 17.724 12.8444 17.5779 12.8444 17.4255V12.0638C12.8444 11.9115 12.9041 11.7654 13.0104 11.6576C13.1167 11.5499 13.2608 11.4894 13.4111 11.4894H16.4333C16.5836 11.4894 16.7278 11.5499 16.834 11.6576C16.9403 11.7654 17 11.9115 17 12.0638ZM4.53333 13.9787C4.53333 14.6389 4.27462 15.2721 3.81412 15.739C3.35361 16.2058 2.72903 16.4681 2.07778 16.4681H1.13333V17.4255C1.13333 17.5779 1.07363 17.724 0.967361 17.8317C0.86109 17.9395 0.716956 18 0.566667 18C0.416377 18 0.272243 17.9395 0.165973 17.8317C0.0597021 17.724 0 17.5779 0 17.4255V12.0638C0 11.9115 0.0597021 11.7654 0.165973 11.6576C0.272243 11.5499 0.416377 11.4894 0.566667 11.4894H2.07778C2.72903 11.4894 3.35361 11.7516 3.81412 12.2185C4.27462 12.6853 4.53333 13.3185 4.53333 13.9787ZM3.4 13.9787C3.4 13.6232 3.2607 13.2823 3.01273 13.0309C2.76477 12.7795 2.42845 12.6383 2.07778 12.6383H1.13333V15.3191H2.07778C2.42845 15.3191 2.76477 15.1779 3.01273 14.9265C3.2607 14.6752 3.4 14.3342 3.4 13.9787ZM11.3333 14.7447C11.3333 15.608 10.995 16.436 10.3928 17.0465C9.79062 17.657 8.97386 18 8.12222 18H6.61111C6.46082 18 6.31669 17.9395 6.21042 17.8317C6.10415 17.724 6.04444 17.5779 6.04444 17.4255V12.0638C6.04444 11.9115 6.10415 11.7654 6.21042 11.6576C6.31669 11.5499 6.46082 11.4894 6.61111 11.4894H8.12222C8.97386 11.4894 9.79062 11.8323 10.3928 12.4428C10.995 13.0533 11.3333 13.8813 11.3333 14.7447ZM10.2 14.7447C10.2 14.186 9.98109 13.6503 9.59143 13.2552C9.20177 12.8602 8.67328 12.6383 8.12222 12.6383H7.17778V16.8511H8.12222C8.67328 16.8511 9.20177 16.6291 9.59143 16.2341C9.98109 15.8391 10.2 15.3033 10.2 14.7447ZM0 8.23404V1.34043C0 0.984923 0.139305 0.64398 0.38727 0.392602C0.635235 0.141223 0.971547 1.7765e-07 1.32222 1.7765e-07H10.3889C10.4634 -5.92559e-05 10.5373 0.0147947 10.6061 0.0437108C10.675 0.072627 10.7376 0.115037 10.7903 0.168511L16.0792 5.53021C16.1851 5.638 16.2446 5.784 16.2444 5.93617V8.23404C16.2444 8.3864 16.1847 8.53252 16.0785 8.64025C15.9722 8.74799 15.8281 8.80851 15.6778 8.80851C15.5275 8.80851 15.3834 8.74799 15.2771 8.64025C15.1708 8.53252 15.1111 8.3864 15.1111 8.23404V6.51064H10.3889C10.2386 6.51064 10.0945 6.45011 9.98819 6.34238C9.88192 6.23465 9.82222 6.08853 9.82222 5.93617V1.14894H1.32222C1.27213 1.14894 1.22408 1.16911 1.18866 1.20502C1.15323 1.24093 1.13333 1.28964 1.13333 1.34043V8.23404C1.13333 8.3864 1.07363 8.53252 0.967361 8.64025C0.86109 8.74799 0.716956 8.80851 0.566667 8.80851C0.416377 8.80851 0.272243 8.74799 0.165973 8.64025C0.0597021 8.53252 0 8.3864 0 8.23404ZM10.9556 5.3617H14.3102L10.9556 1.96085V5.3617Z" fill="#E25C5C"/>
</svg>
