<?xml version="1.0" encoding="utf-8"?>
<!-- Generator: Adobe Illustrator 27.5.0, SVG Export Plug-In . SVG Version: 6.00 Build 0)  -->
<svg version="1.1" xmlns="http://www.w3.org/2000/svg" xmlns:xlink="http://www.w3.org/1999/xlink" x="0px" y="0px"
	 viewBox="0 0 750 500" style="enable-background:new 0 0 750 500;" xml:space="preserve">
<g id="BACKGROUND">
	<rect style="fill:#FFFFFF;" width="750" height="500"/>
</g>
<g id="OBJECTS">
	<path style="fill:#CDDCF4;" d="M222.29,419.589c0,0-135.86-24.402-150.308-101.381c-14.448-76.979,53.485-91.752,65.067-141.592
		c11.582-49.84-6.805-137.793,104.579-146.956s125.003,63.274,191.187,62.092C499,90.57,548.727,27.439,609.561,70.684
		c60.834,43.244,66.336,180.311,56.455,225.504c-9.881,45.194-78.978,95.345-104.311,115.377
		C536.372,431.596,355.513,475.319,222.29,419.589z"/>
	<g>
		<g>
			<path style="fill:#7A7D1D;" d="M183.959,443.682c0,0-80.293-11.611-79.709-34.622c0.584-23.012,19.439-12.695,19.647-28.072
				c0.207-15.377-35.997-18.823-38.333-48.341c-2.336-29.519,11.29-16.355,14.696-35.2c3.406-18.845-43.893-56.607-22.871-79.186
				c21.022-22.579,34.971,9.946,58.364,46.816c0,0,3.415,14.672,16.392,6.913c12.977-7.759,9.45-22.537,22.771-9.154
				c13.321,13.383,20.497,68.236,32.726,72.951c12.23,4.715,19.214-16.308,27.109,4.715
				C242.646,361.522,257.829,446.426,183.959,443.682z"/>
			<path style="fill:#FFFFFF;" d="M196.436,414.004l7.685-50.422l-1.491-0.227l-7.454,48.904
				c-11.191-15.605-22.701-33.65-33.541-51.679v-71.856h-1.508v69.343c-13.148-21.99-25.219-43.767-34.417-60.861l-0.046-21.801
				l-1.508,0.003l0.04,18.976c-9.703-18.111-15.844-30.313-16.048-30.72l-1.348,0.676c0.206,0.412,6.478,12.876,16.373,31.327
				l-15.35-8l-0.697,1.338l17.317,9.025c9.273,17.23,21.457,39.198,34.72,61.351l-44.316-17.536l-0.555,1.402l46.148,18.261
				c10.868,18.067,22.409,36.152,33.634,51.792l-66.335-7.367l-0.166,1.5l67.693,7.517c9.264,12.788,18.286,23.849,26.503,31.768
				l1.047-1.087C214.641,437.752,205.661,426.74,196.436,414.004z"/>
		</g>
		<g>
			<path style="fill:#7A7D1D;" d="M526.847,442.081c0,0-69.621-18.66-81.826-43.77c-12.205-25.11-3.248-35.423,9.307-34.938
				c12.555,0.485,19.465,1.758,9.733-17.587c-9.733-19.345-44.477-35.342-29.587-51.263c14.891-15.921,21.212-6.481,25.642-14.705
				c4.431-8.224-20.179-58.121,2.053-66.458c22.232-8.336,23.692,48.024,36.101,50.793c12.409,2.769,21.945-13.761,30.9,2.095
				c8.955,15.857-7.089,68.412,2.977,68.412c10.066,0,15.46-7.299,25.026,5.839C566.738,353.639,548.855,431.544,526.847,442.081z"
				/>
			<path style="fill:#FFFFFF;" d="M529.564,364.968c-0.357-0.221-0.821-0.109-1.037,0.247l-18.935,30.821
				c-4.022-12.432-7.981-25.878-11.733-39.389l14.625-23.14c0.222-0.352,0.118-0.819-0.234-1.042
				c-0.349-0.216-0.816-0.118-1.041,0.234l-13.893,21.984c-3.195-11.571-6.23-23.149-9.017-34.145l19.156-33.076
				c0.209-0.361,0.086-0.822-0.274-1.031c-0.358-0.209-0.822-0.09-1.031,0.274l-18.381,31.738
				c-9.128-36.185-15.443-65.505-15.582-66.151c-0.088-0.408-0.493-0.666-0.896-0.58c-0.408,0.087-0.667,0.488-0.58,0.895
				c0.139,0.648,6.476,30.067,15.638,66.365l-29.746-16.505c-0.358-0.197-0.822-0.072-1.025,0.295
				c-0.202,0.364-0.071,0.824,0.295,1.025l30.986,17.193c2.794,11.023,5.839,22.629,9.043,34.23l-21.843-10.106
				c-0.38-0.172-0.827-0.009-1.002,0.368c-0.174,0.378-0.01,0.826,0.368,1.002l23.005,10.643c3.775,13.591,7.761,27.117,11.81,39.62
				l-45.861-13.23c-0.398-0.118-0.818,0.115-0.934,0.516c-0.115,0.401,0.115,0.819,0.516,0.934l46.845,13.514
				c5.825,17.821,11.764,33.437,17.377,43.967c0.135,0.255,0.396,0.399,0.666,0.399c0.121,0,0.242-0.028,0.355-0.088
				c0.367-0.196,0.507-0.653,0.311-1.021c-5.587-10.481-11.503-26.041-17.308-43.807l19.606-31.914
				C530.029,365.65,529.919,365.186,529.564,364.968z"/>
		</g>
		<g>
			<path style="fill:#B6BA2C;" d="M531.464,441.677c0,0-25.749-94.038-12.172-104.615c13.577-10.577,17.08,6.44,29.927,3.771
				c12.847-2.669,16.967-18.119,13.155-43.387c-3.812-25.268-14.469-37.781,5.458-44.298c19.927-6.518,21.971,2.388,30.584-11.189
				c8.613-13.577-5.009-44.296,19.612-49.375c24.622-5.079,33.505,6.607,30.231,32.881c-3.274,26.274-14.245,30.938,0,36.197
				c14.245,5.26,29.439-3.5,22.134,25.114s-45.75,54.303-35.706,66.769c10.044,12.466,26.561-6.233,26.561,20.726
				C661.249,401.231,601.3,454.678,531.464,441.677z"/>
			<path style="fill:#FFFFFF;" d="M652.641,283.124c-0.214-0.358-0.676-0.469-1.036-0.258l-44.366,26.678
				c8.099-27.285,11.452-47.25,11.535-47.761c0.068-0.411-0.212-0.798-0.623-0.865c-0.406-0.063-0.799,0.211-0.865,0.624
				c-0.083,0.507-3.416,20.355-11.456,47.482l-17.905-33.97c-0.196-0.37-0.654-0.507-1.019-0.315
				c-0.368,0.194-0.51,0.651-0.315,1.019l18.622,35.33c-5.308,17.622-12.567,38.104-22.165,58.289l-8.271-40.165
				c-0.083-0.41-0.486-0.676-0.89-0.586c-0.408,0.084-0.672,0.482-0.586,0.89l8.671,42.11
				c-8.122,16.755-17.869,33.216-29.463,47.561l-6.158-54.151c-0.047-0.415-0.432-0.71-0.835-0.664
				c-0.414,0.047-0.712,0.421-0.664,0.835l6.323,55.599c-7.487,9.048-15.722,17.216-24.777,24.01
				c-0.333,0.25-0.401,0.723-0.152,1.056c0.149,0.197,0.376,0.302,0.604,0.302c0.158,0,0.317-0.049,0.452-0.15
				c9.15-6.865,17.466-15.117,25.025-24.257l63.096-18.838c0.399-0.119,0.626-0.541,0.508-0.938
				c-0.119-0.399-0.542-0.625-0.939-0.508l-60.957,18.199c11.446-14.259,21.091-30.551,29.148-47.132l35.198-18.338
				c0.368-0.193,0.513-0.648,0.32-1.018c-0.192-0.37-0.65-0.51-1.018-0.32l-33.412,17.409c9.667-20.285,16.979-40.871,22.326-58.588
				l45.788-27.533C652.739,283.945,652.854,283.481,652.641,283.124z"/>
		</g>
	</g>
	<g>
		<g>
			<g>
				<g>
					<rect x="212.001" y="184.585" style="fill:#7A88B0;" width="22.749" height="251.246"/>
					<rect x="227.149" y="184.586" style="fill:#475066;" width="7.602" height="251.238"/>
					<polygon style="fill:#475066;" points="234.749,184.585 234.749,196.608 212.001,194.073 212.001,184.585 					"/>
				</g>
				<g>
					<rect x="175.551" y="435.831" style="fill:#7A88B0;" width="95.65" height="8.614"/>
					<rect x="238.807" y="435.831" style="fill:#475066;" width="32.394" height="8.614"/>
				</g>
			</g>
			<g>
				<rect x="183.959" y="150.425" style="fill:#D4D4D4;" width="52.979" height="34.161"/>
				<polygon style="fill:#ECECF4;" points="254.325,123.855 236.938,150.425 183.959,150.425 201.346,123.855 				"/>
				<path style="fill:#FFFFFF;" d="M191.842,150.802h-4.624c-0.209,0-0.377-0.169-0.377-0.377c0-0.209,0.168-0.377,0.377-0.377
					h4.624c0.209,0,0.377,0.168,0.377,0.377C192.219,150.634,192.051,150.802,191.842,150.802z"/>
				<path style="fill:#FFFFFF;" d="M232.816,150.802h-32.798c-0.209,0-0.377-0.169-0.377-0.377c0-0.209,0.169-0.377,0.377-0.377
					h32.798c0.209,0,0.377,0.168,0.377,0.377C233.193,150.634,233.025,150.802,232.816,150.802z"/>
				<polygon style="fill:#9C9C9C;" points="254.325,123.855 261.555,123.855 261.555,184.586 236.938,184.586 236.938,150.425 				
					"/>
			</g>
			<g>
				<rect x="241.087" y="175.048" style="fill:#475066;" width="240.686" height="7.319"/>
				<rect x="257.245" y="145.462" style="fill:#475066;" width="224.528" height="33.246"/>
				<polygon style="fill:#7A88B0;" points="489.234,148.204 505.168,123.855 261.555,123.855 245.621,148.204 				"/>
				<path style="fill:#FFFFFF;" d="M434.2,130.418H269.818c-0.384,0-0.696-0.311-0.696-0.696c0-0.384,0.311-0.696,0.696-0.696H434.2
					c0.385,0,0.696,0.311,0.696,0.696C434.895,130.107,434.584,130.418,434.2,130.418z"/>
				<path style="fill:#FFFFFF;" d="M371.185,136.726H264.971c-0.384,0-0.696-0.311-0.696-0.696c0-0.385,0.311-0.696,0.696-0.696
					h106.214c0.384,0,0.696,0.311,0.696,0.696C371.881,136.415,371.57,136.726,371.185,136.726z"/>
				<path style="fill:#FFFFFF;" d="M467.801,130.418h-13.943c-0.384,0-0.696-0.311-0.696-0.696c0-0.384,0.311-0.696,0.696-0.696
					h13.943c0.385,0,0.696,0.311,0.696,0.696C468.497,130.107,468.185,130.418,467.801,130.418z"/>
			</g>
			<g>
				<g>
					<rect x="490.019" y="184.585" style="fill:#7A88B0;" width="22.749" height="251.246"/>
					<rect x="505.168" y="184.586" style="fill:#475066;" width="7.602" height="251.238"/>
					<polygon style="fill:#475066;" points="512.768,184.585 512.768,196.608 490.019,194.073 490.019,184.585 					"/>
				</g>
				<g>
					<rect x="453.57" y="435.831" style="fill:#7A88B0;" width="95.649" height="8.614"/>
					<rect x="516.826" y="435.831" style="fill:#475066;" width="32.394" height="8.614"/>
				</g>
			</g>
			<g>
				<rect x="480.312" y="150.425" style="fill:#D4D4D4;" width="52.979" height="34.161"/>
				<polygon style="fill:#ECECF4;" points="550.678,123.855 533.291,150.425 480.312,150.425 497.699,123.855 				"/>
				<path style="fill:#FFFFFF;" d="M488.195,150.802h-4.624c-0.208,0-0.378-0.169-0.378-0.377c0-0.209,0.17-0.377,0.378-0.377h4.624
					c0.208,0,0.378,0.168,0.378,0.377C488.573,150.634,488.403,150.802,488.195,150.802z"/>
				<path style="fill:#FFFFFF;" d="M529.169,150.802h-32.798c-0.208,0-0.378-0.169-0.378-0.377c0-0.209,0.17-0.377,0.378-0.377
					h32.798c0.208,0,0.378,0.168,0.378,0.377C529.547,150.634,529.377,150.802,529.169,150.802z"/>
				<polygon style="fill:#9C9C9C;" points="550.678,123.855 557.908,123.855 557.908,184.586 533.291,184.586 533.291,150.425 				
					"/>
			</g>
		</g>
		<g>
			<path style="fill:#FFFFFF;" d="M406.851,439.104c0,0,36.157-35.004,51.771-80.644c7.44-21.748-6.27-76.145-16.699-116.725
				c-10.429-40.58,34.955-79.651,34.955-79.651H255.822c0,0-45.383,39.071-34.955,79.651c10.429,40.58,24.139,94.977,16.699,116.725
				c-15.613,45.641-51.771,80.644-51.771,80.644H406.851z"/>
			<g>
				<g>
					<path style="fill:#FDBB59;" d="M337.629,200.26c-5.732,11.938-9.169,25.67-6.15,39.653h-84.844
						c-5.009-23.194,7.736-45.691,19.298-60.481h71.695V200.26z"/>
					<path style="fill:#DF6357;" d="M337.629,200.26c-5.732,11.938-9.169,25.67-6.15,39.653h-45.344v-11.465
						c0.292-18.992,10.755-36.69,20.411-49.017h44.23C346.185,185.303,341.413,192.399,337.629,200.26z"/>
				</g>
				<path style="fill:#D4D4D4;" d="M343.053,216.781h76.295c0.496-2.23,1.105-4.428,1.815-6.588h-76.296
					C344.158,212.353,343.548,214.551,343.053,216.781z M341.638,228.359h76.296c0.039-2.216,0.219-4.413,0.517-6.587h-76.296
					C341.857,223.946,341.676,226.143,341.638,228.359z M356.52,187.038c-1.411,2.1-2.793,4.3-4.114,6.587h76.296
					c1.32-2.287,2.702-4.487,4.113-6.587H356.52z M346.702,205.204h76.296c0.914-2.251,1.924-4.45,3.002-6.587h-76.296
					C348.626,200.754,347.617,202.953,346.702,205.204z"/>
				<g>
					<path style="fill:#DF6357;" d="M247.621,350.482h204.287c2.618-18.369-4.998-54.135-12.351-84.048H235.662
						C243.813,300.171,249.61,330.51,247.621,350.482z"/>
					<path style="fill:#FFFFFF;" d="M397.305,337.177c-0.053,0-0.106-0.003-0.159-0.009c-0.491-0.056-0.914-0.368-1.114-0.821
						l-22.033-50.032l-19.34,40.724c-0.177,0.372-0.508,0.647-0.906,0.75c-0.398,0.103-0.821,0.026-1.157-0.212l-22.494-15.991
						l-11.341,17.811c-0.25,0.391-0.679,0.633-1.143,0.644c-0.512-0.019-0.904-0.212-1.171-0.592l-28.062-40.008l-17.975,43.733
						c-0.292,0.711-1.105,1.047-1.816,0.758c-0.711-0.292-1.05-1.105-0.758-1.815l18.941-46.085c0.193-0.47,0.628-0.798,1.133-0.855
						c0.51-0.052,1.002,0.168,1.294,0.584l28.327,40.385l11.01-17.291c0.205-0.322,0.533-0.545,0.907-0.618
						c0.377-0.073,0.762,0.011,1.073,0.231l22.335,15.878l19.933-41.972c0.234-0.492,0.71-0.832,1.276-0.795
						c0.544,0.008,1.034,0.333,1.254,0.83l22.299,50.637l27.87-37.19c0.459-0.613,1.332-0.742,1.947-0.279
						c0.616,0.461,0.741,1.333,0.279,1.947l-29.297,39.095C398.154,336.973,397.74,337.177,397.305,337.177z"/>
				</g>
				<path style="fill:#FDBB59;" d="M397.709,424.994c11.8-14.159,28.903-37.795,38.596-65.445h-88.612
					c-9.693,27.651-26.796,51.287-38.596,65.445H397.709z"/>
			</g>
		</g>
	</g>
	<g>
		<polygon style="fill:#F2F0F7;" points="147.797,365.61 175.83,365.61 176.66,382.934 		"/>
		<polygon style="fill:#707070;" points="147.797,373.785 147.797,365.61 176.66,382.934 174.519,397.034 		"/>
		<polygon style="fill:#D4D4D4;" points="147.797,368.643 175.702,389.246 175.83,388.403 147.797,367.706 		"/>
	</g>
	<g>
		<g>
			<g>
				<rect x="432.815" y="303.128" style="fill:#D4D4D4;" width="21.512" height="23.314"/>
				<rect x="432.815" y="303.128" style="fill:#707070;" width="1.658" height="23.314"/>
			</g>
			<g>
				<path style="fill:#707070;" d="M490.734,303.853l-11.391-57.249c-0.216-1.088-1.171-1.871-2.28-1.871h-92.489
					c-1.466,0-2.566,1.341-2.28,2.779l11.391,57.249c0.216,1.088,1.171,1.871,2.28,1.871h92.489
					C489.921,306.631,491.02,305.291,490.734,303.853z"/>
				<path style="fill:#475066;" d="M491.166,306.625h-92.488c-1.101,0-2.067-0.784-2.278-1.871l-2.233-11.193l-9.157-46.056
					c-0.287-1.433,0.815-2.776,2.278-2.776h92.488c1.116,0,2.067,0.785,2.278,1.871l9.338,46.961l2.052,10.288
					C493.73,305.297,492.629,306.625,491.166,306.625z"/>
				<path style="fill:#D4D4D4;" d="M491.166,306.625h-92.488c-1.101,0-2.067-0.784-2.278-1.871l-2.233-11.193h97.225l2.052,10.288
					C493.73,305.297,492.629,306.625,491.166,306.625z"/>
				<path style="fill:#7A88B0;" d="M422.938,284.837c-0.102,0-0.203-0.026-0.296-0.084c-0.267-0.164-0.349-0.511-0.186-0.778
					l20.89-33.991c0.164-0.267,0.51-0.349,0.778-0.186c0.267,0.163,0.349,0.512,0.186,0.778l-20.89,33.991
					C423.314,284.742,423.128,284.837,422.938,284.837z"/>
				<path style="fill:#7A88B0;" d="M453.732,256.582c-0.102,0-0.203-0.027-0.296-0.084c-0.266-0.163-0.349-0.512-0.186-0.778
					l3.525-5.736c0.162-0.267,0.511-0.349,0.778-0.186c0.267,0.163,0.349,0.512,0.186,0.778l-3.525,5.736
					C454.108,256.486,453.922,256.582,453.732,256.582z"/>
				<path style="fill:#7A88B0;" d="M439.106,280.38c-0.102,0-0.203-0.027-0.296-0.084c-0.266-0.163-0.349-0.512-0.186-0.778
					l10.879-17.703c0.162-0.268,0.51-0.35,0.778-0.186c0.267,0.164,0.349,0.512,0.186,0.778l-10.879,17.703
					C439.482,280.285,439.296,280.38,439.106,280.38z"/>
				<path style="fill:#FFFFFF;" d="M445.245,302.995c-1.245,0-2.426-1.067-2.765-2.584c-0.181-0.813-0.099-1.637,0.234-2.32
					c0.346-0.713,0.919-1.19,1.615-1.346c1.402-0.314,2.851,0.824,3.234,2.532l0,0c0.38,1.709-0.449,3.353-1.849,3.667
					C445.557,302.977,445.4,302.995,445.245,302.995z M444.805,297.446c-0.103,0-0.208,0.01-0.311,0.034
					c-0.467,0.105-0.857,0.438-1.102,0.94c-0.258,0.53-0.32,1.179-0.175,1.825c0.29,1.302,1.336,2.185,2.333,1.961
					c0.993-0.223,1.566-1.463,1.276-2.765C446.565,298.273,445.697,297.446,444.805,297.446z"/>
			</g>
			<g>
				<rect x="421.432" y="324.345" style="fill:#D4D4D4;" width="42.628" height="2.097"/>
				<rect x="421.432" y="324.345" style="fill:#707070;" width="10.341" height="2.097"/>
			</g>
		</g>
	</g>
	<g>
		<g>
			<polygon style="fill:#D4D4D4;" points="432.815,330.55 432.815,466.273 422.934,466.273 422.934,341.382 405.27,341.382 
				405.27,459.259 397.305,459.259 397.305,330.55 			"/>
			<polygon style="fill:#707070;" points="428.048,330.55 428.048,466.273 422.934,466.273 422.934,341.382 405.27,341.382 
				405.27,459.259 397.305,459.259 397.305,330.55 			"/>
			<rect x="402.841" y="341.382" style="fill:#D4D4D4;" width="2.429" height="117.877"/>
		</g>
		<g>
			<polygon style="fill:#D4D4D4;" points="666.016,330.55 666.016,466.273 656.135,466.273 656.135,341.382 638.47,341.382 
				638.47,459.259 630.505,459.259 630.505,330.55 			"/>
			<polygon style="fill:#707070;" points="661.249,330.55 661.249,466.273 656.135,466.273 656.135,341.382 638.47,341.382 
				638.47,459.259 630.505,459.259 630.505,330.55 			"/>
			<rect x="636.041" y="341.382" style="fill:#D4D4D4;" width="2.429" height="117.877"/>
		</g>
		<g>
			<rect x="382.904" y="326.441" style="fill:#FDBB59;" width="297.12" height="8.22"/>
			<g>
				<g>
					<rect x="382.904" y="326.441" style="fill:#B3823B;" width="28.796" height="8.22"/>
				</g>
			</g>
		</g>
	</g>
	<g>
		<g>
			<path style="fill:#475066;" d="M553.453,454.522c-0.151,1.161-10.077,8.026-17.816,9.625c-7.739,1.614-19.113,1.463-19.113,1.463
				s0.091-0.664,0.302-1.659c0.076-0.332,0.166-0.694,0.257-1.086c0.437-1.901,1.177-4.405,2.202-6.155
				c0.845-1.418,3.243-2.263,5.672-2.776c3.063-0.634,6.155-0.724,6.155-0.724l9.489-4.526l8.614-1.327
				c2.534,1.825,3.666,4.013,4.058,5.551C553.468,453.602,553.498,454.16,553.453,454.522z"/>
			<path style="fill:#D4D4D4;" d="M529.724,464.086l-12.898-0.136c0.076-0.332,0.166-0.694,0.257-1.086
				c0.437-1.901,1.177-4.405,2.202-6.155c0.845-1.418,3.243-2.263,5.672-2.776c1.237,0.573,2.821,1.855,3.606,4.812
				C529.95,464.01,529.724,464.086,529.724,464.086z"/>
			<path style="fill:#2B1225;" d="M566.738,353.639c0,0-55.183,7.299-56.935,9.635c-1.752,2.336-7.007,9.927-7.299,11.679
				c-0.292,1.752,5.255,20.146,9.635,30.073c4.38,9.927,18.978,48.176,18.978,48.176s9.343-1.752,18.102-5.84
				c0,0-9.927-37.957-12.263-44.672c-2.336-6.715-4.964-16.643-4.964-16.643s59.855-3.504,63.651-8.467
				c3.796-4.964,11.387-13.723,8.175-19.27c-3.212-5.548-23.942-10.511-23.942-10.511L566.738,353.639z"/>
			<path style="fill:#D4D4D4;" d="M553.453,454.522c-0.151,1.161-10.077,8.026-17.816,9.625c-7.739,1.614-19.113,1.463-19.113,1.463
				s0.166-1.161,0.558-2.746c3.817,0.06,14.256,0.076,19.43-1.342c5.325-1.448,13.969-6.834,16.76-8.614
				C553.468,453.602,553.498,454.16,553.453,454.522z"/>
			<path style="fill:#475066;" d="M519.048,463.026c-0.103,0-0.187-0.082-0.189-0.186c-0.002-0.104,0.081-0.19,0.186-0.191
				c0.06-0.001,6.052-0.1,8.449-0.387c0.096-0.022,0.196,0.062,0.209,0.165c0.013,0.103-0.062,0.197-0.165,0.209
				c-2.414,0.29-8.427,0.389-8.487,0.39C519.05,463.026,519.05,463.026,519.048,463.026z"/>
		</g>
		<g>
			<path style="fill:#D4D4D4;" d="M622.602,385.465c0.195-0.973,3.698-13.042,3.893-17.129c0.195-4.088-8.954-3.114-8.954-3.114
				l-7.981,21.022L622.602,385.465z"/>
			<g>
				<path style="fill:#7A88B0;" d="M600.412,370.866c0,0,31.144-0.389,33.674-0.195c2.53,0.195,9.927-1.363,9.927-1.363
					s12.652-57.616,11.873-61.899c-0.779-4.282-8.759-6.229-12.652-6.618c-3.893-0.389-36.594,1.557-38.735,1.947
					C602.359,303.128,600.412,370.866,600.412,370.866z"/>
				<path style="fill:#475066;" d="M632.401,370.628c2.333-10.716,12.733-58.891,12.007-62.885
					c-0.724-3.979-7.365-6.035-11.717-6.739c-11.056,0.479-26.73,1.468-28.191,1.734c-2.141,0.389-4.088,68.127-4.088,68.127
					S625.353,370.554,632.401,370.628z"/>
				<path style="fill:#D4D4D4;" d="M635.431,364.902l-0.742-0.141c0,0,6.475-34.126,8.805-46.243
					c0.038-0.205,0.237-0.351,0.44-0.299c0.205,0.038,0.339,0.237,0.299,0.44C641.903,330.776,635.431,364.902,635.431,364.902z"/>
				<path style="fill:#D4D4D4;" d="M645.085,309.94c-0.205,0-0.373-0.164-0.377-0.37c-0.049-2.272-0.502-4.162-1.155-4.814
					c-0.147-0.147-0.147-0.386,0-0.533c0.147-0.147,0.386-0.147,0.533,0c0.807,0.807,1.322,2.801,1.376,5.333
					c0.005,0.208-0.16,0.38-0.37,0.384C645.091,309.94,645.088,309.94,645.085,309.94z"/>
			</g>
			<g>
				<rect x="582.796" y="399.479" style="fill:#D4D4D4;" width="9.051" height="62.969"/>
				<rect x="574.037" y="399.479" style="fill:#475066;" width="26.57" height="6.861"/>
				<rect x="553.21" y="461.572" style="fill:#475066;" width="68.225" height="4.696"/>
			</g>
			<g>
				<path style="fill:#7A88B0;" d="M534.621,389.552c0,0-0.876,8.175,0,10.803c0.876,2.628,50.512,2.336,66.57,2.336
					c16.058,0,36.497,0.876,37.665-1.752c1.168-2.628,2.044-15.183,0.876-16.35s-59.271,0.876-66.278,1.168
					C566.446,386.048,536.372,384.297,534.621,389.552z"/>
				<path style="fill:#475066;" d="M640.084,385.572c-0.086-0.485-0.202-0.833-0.353-0.984c-1.168-1.168-59.271,0.876-66.278,1.168
					c-7.007,0.292-37.081-1.46-38.833,3.796c0,0-0.02,0.189-0.049,0.494C559.621,390.787,622.834,392.124,640.084,385.572z"/>
				<path style="fill:#D4D4D4;" d="M564.792,389.735c-0.208,0-0.377-0.168-0.377-0.376c0-0.209,0.168-0.379,0.376-0.379
					c0.351-0.001,35.244-0.118,56.353-1.04c0.208-0.012,0.385,0.152,0.393,0.361c0.009,0.208-0.153,0.384-0.361,0.393
					c-21.124,0.922-56.034,1.039-56.383,1.04H564.792z"/>
				<path style="fill:#D4D4D4;" d="M627.728,388.35c-0.197,0-0.364-0.153-0.376-0.354c-0.013-0.208,0.144-0.387,0.352-0.399
					c4.409-0.28,7.31-0.597,8.623-0.941c0.206-0.047,0.407,0.069,0.461,0.27c0.052,0.202-0.068,0.408-0.27,0.461
					c-1.379,0.361-4.246,0.676-8.767,0.962C627.744,388.35,627.735,388.35,627.728,388.35z"/>
			</g>
		</g>
		<g>
			<path style="fill:#7A88B0;" d="M503.686,462.17c-0.332,1.222-0.604,1.976-0.604,1.976s-5.099-0.724-19.113-3.5
				c-6.969-1.388-12.807-3.455-16.941-5.34c-4.179-1.871-6.638-3.56-6.864-4.148c-0.196-0.528,0.211-1.448,0.875-2.398
				c0.784-1.161,1.961-2.368,2.927-3.002c1.162-0.769,5.023-0.06,7.482,0.483c1.252,0.302,2.142,0.543,2.142,0.543l12.853-2.338
				l8.327,0.875c0,0,9.624,1.901,10.062,7.301C505.12,456.121,504.29,459.922,503.686,462.17z"/>
			<path style="fill:#D4D4D4;" d="M471.449,446.24c-0.483,2.082-1.629,6.366-3.259,8.418c-0.256,0.332-0.664,0.543-1.161,0.649
				c-4.179-1.871-6.638-3.56-6.864-4.148c-0.196-0.528,0.211-1.448,0.875-2.398c0.784-1.161,1.961-2.368,2.927-3.002
				C465.128,444.988,468.99,445.697,471.449,446.24z"/>
			<path style="fill:#3D1D37;" d="M598.855,356.267c0,0-75.913,9.343-78.249,11.679c-2.336,2.336-9.051,10.219-10.219,12.847
				c-1.168,2.628-23.942,63.65-23.942,63.65s9.051,6.132,18.394,8.175l29.781-63.066c0,0,69.444-2.858,76.205-4.088
				c3.212-0.584,9.927-13.431,8.759-19.854C617.946,356.595,604.402,354.223,598.855,356.267z"/>
			<path style="fill:#2B1225;" d="M532.868,388.372c-0.057,0-0.115-0.013-0.168-0.04c-3.141-1.57-5.647-4.25-5.753-4.363
				c-0.141-0.152-0.133-0.39,0.021-0.533c0.153-0.14,0.392-0.13,0.533,0.021c0.024,0.026,2.522,2.694,5.535,4.201
				c0.187,0.093,0.262,0.32,0.169,0.505C533.139,388.296,533.007,388.372,532.868,388.372z"/>
			<path style="fill:#2B1225;" d="M534.425,387.399c-0.169,0-0.323-0.115-0.365-0.286c-0.391-1.56-0.771-4.399-0.787-4.518
				c-0.027-0.206,0.118-0.396,0.324-0.424c0.218-0.019,0.398,0.119,0.424,0.324c0.003,0.029,0.39,2.917,0.769,4.436
				c0.052,0.202-0.072,0.407-0.274,0.457C534.486,387.396,534.455,387.399,534.425,387.399z"/>
			<path style="fill:#D4D4D4;" d="M503.686,462.17c-0.332,1.222-0.604,1.976-0.604,1.976s-5.099-0.724-19.113-3.5
				c-14.014-2.776-23.367-8.327-23.805-9.489c-0.196-0.528,0.211-1.448,0.875-2.398c4.073,2.58,12.943,7.618,22.04,9.112
				C491.814,459.319,499.749,461.189,503.686,462.17z"/>
			<path style="fill:#7A88B0;" d="M467.612,452.734c-0.031,0-0.062-0.007-0.09-0.023c-1.59-0.868-5.222-2.973-5.259-2.994
				c-0.09-0.053-0.121-0.168-0.069-0.258c0.053-0.091,0.168-0.118,0.258-0.069c0.037,0.022,3.665,2.124,5.251,2.991
				c0.091,0.05,0.125,0.163,0.075,0.255C467.743,452.699,467.679,452.734,467.612,452.734z"/>
		</g>
		<g>
			<path style="fill:#FFFFFF;" d="M559.73,300.062l-13.869,11.387l-30.365,4.818c0,0,49.052,0.292,50.658-0.73
				c1.606-1.022,7.153-4.088,7.153-4.088l-3.796-9.489L559.73,300.062z"/>
			<path style="fill:#DF6357;" d="M573.161,286.777l-13.431,13.285c0,0,8.613,4.672,9.781,11.095
				c1.168,6.423,6.424-13.577,6.424-13.577L573.161,286.777z"/>
			<path style="fill:#E1787F;" d="M498.27,317.289c0,0-5.11-1.606-7.883-0.438c-2.774,1.168-8.613,6.496-8.613,6.496h14.453
				L498.27,317.289z"/>
		</g>
		<g>
			<path style="fill:#DF6357;" d="M584.287,280.512c0,0-8.498,1.593-11.126,6.265c-2.628,4.672-3.504,36.205-2.628,42.044
				c0.876,5.84-3.796,24.818-3.796,24.818s22.774-0.876,33.285,3.212c10.511,4.088,19.562,8.759,19.562,8.759
				s0.584-18.686-0.584-26.278c-1.168-7.591-2.92-19.27-2.92-19.27s2.628-25.402,2.044-28.613c-0.584-3.212-8.759-9.927-8.759-9.927
				l-7.791-2.337L584.287,280.512z"/>
			<path style="fill:#8F3F38;" d="M570.63,307.981c-0.004,0-0.009,0-0.013,0c-0.208-0.007-0.371-0.181-0.364-0.39
				c0.485-14.202,2.002-18.618,2.067-18.799c0.069-0.196,0.284-0.301,0.48-0.228c0.196,0.069,0.299,0.284,0.23,0.48
				c-0.015,0.044-1.544,4.533-2.023,18.574C571,307.821,570.834,307.981,570.63,307.981z"/>
			<path style="fill:#8F3F38;" d="M618.199,292.303l-4.258,2.65l-17.421,6.813l-26.227,12.239c-0.17,6.719-0.09,12.608,0.241,14.817
				c0.271,1.806,0.01,4.871-0.478,8.241c3.105-0.358,6.879-1.058,10.308-2.402c7.202-2.822,18.297-9.343,18.297-9.343l19.221-25.41
				C618.111,296.632,618.252,293.814,618.199,292.303z"/>
			<path style="fill:#F8ACA9;" d="M586.597,286.821c5.152,1.421,13.144-3.18,15.95-7.345l-0.972-0.292l-17.288,1.328
				C584.287,280.512,581.125,285.311,586.597,286.821z"/>
		</g>
		<g>
			<path style="fill:#F8ACA9;" d="M601.575,279.185c-9.534,5.069-17.122,4.284-17.122,4.284l-0.166-2.957l-0.226-4.058l1.267-5.174
				l0.875-3.575l10.122-5.069l1.508,7.497L601.575,279.185z"/>
			<path style="fill:#E1787F;" d="M584.287,280.512l-0.226-4.058l1.267-5.174l9.639-4.164
				C594.968,267.116,596.265,279.969,584.287,280.512z"/>
			<path style="fill:#F8ACA9;" d="M575.059,246.339c0,0-0.876,8.029-0.438,11.387c0.438,3.358,0.292,7.737,0.292,9.635
				c0,1.898,4.526,11.241,4.526,11.241s8.759-0.292,12.993-4.38c4.234-4.088,4.526-8.175,4.526-8.175s1.46-10.511,0.584-13.723
				c-0.876-3.212-6.861-10.511-6.861-10.511l-10.073-1.898L575.059,246.339z"/>
			<path style="fill:#3D1D37;" d="M596.081,259.769c0,0-1.022,4.088-1.168,4.234c-0.146,0.146-0.292-5.694-2.044-8.029
				c-1.752-2.336-2.774-3.066-3.65-5.109c-0.876-2.044-1.46-4.234-1.46-4.234s-7.153,0.292-9.635,2.92l1.46-2.628
				c0,0-5.839,2.628-7.007,4.526l1.168-5.839l-2.482,1.606c0,0,0.146-11.679,15.475-10.949l-1.606-1.46
				c0,0,8.905-1.022,13.285,7.153c0,0,4.817,0.438,5.401,5.985c0.584,5.548-0.438,10.219-0.438,10.219l-1.46-0.876
				c0,0,0.292,2.774-0.146,5.548c-0.438,2.774-3.942,7.299-3.942,7.299l-0.876-4.088L596.081,259.769z"/>
			<path style="fill:#F8ACA9;" d="M596.081,259.769c0,0,2.044-3.504,3.65-1.314s0.438,7.299-3.358,7.883L596.081,259.769z"/>
		</g>
		<g>
			<path style="fill:#8F3F38;" d="M595.643,318.602c0,0-1.898,1.022-6.131-2.044c-4.234-3.066-7.591-17.226-7.591-17.226
				s6.569-0.292,9.635,2.482c3.066,2.774,5.402,6.715,5.985,9.051C598.125,313.201,595.643,318.602,595.643,318.602z"/>
			<path style="fill:#F8ACA9;" d="M516.81,315.683c0,0-3.504-0.219-4.234-0.292c-0.73-0.073-7.664-0.292-8.832,0
				c-1.168,0.292-8.613,1.46-9.781,3.139c-1.168,1.679-2.92,4.818-2.92,4.818h17.518l0.511,2.92c0,0,5.499,0.438,7.348-0.073
				c1.849-0.511,2.871-6.642,2.871-6.642L516.81,315.683z"/>
			<path style="fill:#FFFFFF;" d="M581.92,299.332c0,0-10.9,9.927-13.139,11.874c0,0-16.837,1.363-19.854,1.557
				c-3.017,0.195-32.117,2.92-32.117,2.92l-0.389,10.511c0,0,15.961,0,21.411,0.097c5.45,0.097,30.755-0.876,32.798-0.973
				c2.044-0.097,4.38-1.265,5.839-1.946c1.46-0.681,17.908-11.484,17.908-11.484s-4.185-6.91-7.202-9.635
				C584.159,299.527,581.92,299.332,581.92,299.332z"/>
			<path style="fill:#EDDADA;" d="M519.181,315.864l-0.071-0.751c0,0,25.266-2.347,31.921-2.955c0.227-0.034,0.39,0.136,0.41,0.342
				c0.019,0.206-0.134,0.39-0.342,0.409C544.445,313.517,519.181,315.864,519.181,315.864z"/>
			<path style="fill:#EDDADA;" d="M557.548,312.396c-0.197,0-0.362-0.152-0.376-0.351c-0.015-0.208,0.141-0.389,0.349-0.402
				c4.274-0.299,8.319-0.523,8.319-0.523c0.203,0.005,0.386,0.147,0.398,0.357c0.01,0.208-0.149,0.386-0.357,0.398
				c0,0-4.039,0.224-8.307,0.52C557.566,312.396,557.557,312.396,557.548,312.396z"/>
			<path style="fill:#DF6357;" d="M581.92,299.332c0,0,17.081-18.54,27.446-17.81c10.365,0.73,9.489,11.387,8.175,15.913
				c-1.314,4.526-10.073,16.059-21.898,21.168C595.643,318.602,596.957,309.551,581.92,299.332z"/>
			<path style="fill:#FFFFFF;" d="M584.11,297.446c-0.1,0-0.199-0.04-0.273-0.118c-0.144-0.15-0.138-0.389,0.013-0.532
				c0.053-0.052,5.451-5.175,10.754-9.218c0.164-0.125,0.402-0.093,0.529,0.072c0.125,0.165,0.094,0.402-0.072,0.529
				c-5.27,4.016-10.638,9.112-10.692,9.162C584.297,297.413,584.203,297.446,584.11,297.446z"/>
			<path style="fill:#FFFFFF;" d="M598.626,285.571c-0.124,0-0.246-0.062-0.318-0.174c-0.112-0.175-0.06-0.408,0.115-0.522
				c1.36-0.871,2.54-1.504,3.506-1.881c0.195-0.069,0.412,0.021,0.489,0.215c0.075,0.194-0.021,0.412-0.215,0.489
				c-0.919,0.358-2.055,0.968-3.374,1.814C598.766,285.552,598.697,285.571,598.626,285.571z"/>
			<path style="fill:#DF6357;" d="M594.329,318.937c-0.009,0-0.018,0-0.026-0.001c-3.094-0.442-5.226-2.593-5.315-2.684
				c-0.072-0.074-0.071-0.193,0.004-0.265c0.074-0.074,0.193-0.069,0.267,0.002c0.021,0.022,2.135,2.151,5.097,2.574
				c0.103,0.015,0.175,0.11,0.161,0.213C594.503,318.869,594.422,318.937,594.329,318.937z"/>
		</g>
	</g>
	<g>
		<rect x="446.813" y="323.347" style="fill:#7A88B0;" width="62.552" height="3.095"/>
		<rect x="446.813" y="323.347" style="fill:#475066;" width="18.805" height="3.095"/>
	</g>
	<g>
		<g>
			<polygon style="fill:#CE7B51;" points="163.424,260.305 169.069,273.346 161.088,280.159 156.222,269.453 			"/>
			<path style="fill:#FDBB59;" d="M152.134,235.974c0,0,4.818,4.818,7.591,10.219c2.774,5.402,6.715,12.993,6.715,12.993
				s-3.796,4.672-7.737,5.84c-3.942,1.168-7.883-17.956-7.883-17.956L152.134,235.974z"/>
		</g>
		<g>
			<g>
				<path style="fill:#DF6357;" d="M174.916,465.278c-0.271,0.618-0.86,1.041-1.327,1.509c-0.724,0.724-12.702,0.136-18.676-0.302
					c-5.989-0.437-11.691-1.026-11.691-1.026s-0.03-0.754-0.06-1.72c-0.03-1.116-0.076-2.519-0.076-3.379
					c0-1.614,1.071-7.346,1.071-7.346l4.179-3.455l7.105,1.312c0,0,4.571,6.426,8.086,8.176c3.5,1.75,7.286,1.448,8.614,1.75
					c1.312,0.287,2.625,1.75,2.911,3.213C175.158,464.523,175.097,464.931,174.916,465.278z"/>
				<path style="fill:#3D1D37;" d="M162.061,324.734c0,0-0.584,45.743-1.168,53.529c-0.584,7.786-2.141,19.27-2.141,19.27
					s-1.363,19.27-1.557,24.72c-0.195,5.45-1.752,28.613-1.752,28.613s-4.672,2.336-11.29,2.141c0,0-0.584-19.076-0.584-28.03
					c0-8.954-0.779-26.862-0.779-29.587c0-2.725,0.779-6.229,0.779-6.229l-2.141-26.278c0,0-2.336-6.618-2.92-9.538
					c-0.584-2.92,4.282-29.976,4.282-29.976L162.061,324.734z"/>
				<path style="fill:#D4D4D4;" d="M174.916,465.278c-0.271,0.618-0.86,1.041-1.327,1.509c-0.724,0.724-12.702,0.136-18.676-0.302
					c-5.989-0.437-11.691-1.026-11.691-1.026s-0.03-0.754-0.06-1.72C150.116,464.116,167.842,465.066,174.916,465.278z"/>
			</g>
			<g>
				<path style="fill:#DF6357;" d="M135.906,468.913c-0.09,0.664-0.271,1.222-0.558,1.509c-1.026,1.026-12.853,0.739-14.316,0.453
					c-1.418-0.302-1.735-0.453-1.871-2.534c-0.015-0.03-0.015-0.06-0.015-0.106c-0.151-2.187,0.875-5.687,1.75-8.025
					c0.875-2.338,1.463-9.051,1.463-9.051s10.364-1.312,11.088,1.75c0.724,3.062,1.901,10.665,2.187,11.389
					C135.845,464.81,136.132,467.224,135.906,468.913z"/>
				<path style="fill:#3D1D37;" d="M122.353,451.159c0,0-3.504-39.709-3.212-45.548c0.292-5.84,1.168-18.102,1.46-22.774
					c0.292-4.672-6.423-40.584-6.423-43.504c0-2.92,0.584-13.723,0.584-13.723l34.453-2.044c0,0-5.839,21.898-6.715,24.234
					c-0.876,2.336-3.796,37.957-4.088,38.832c-0.292,0.876-0.876,18.395-1.46,24.818c-0.584,6.424-3.504,41.46-3.504,41.46
					S124.981,453.495,122.353,451.159z"/>
				<path style="fill:#2B1225;" d="M141.039,359.083c-0.009,0-0.018,0-0.027-0.001c-0.103-0.015-0.174-0.111-0.159-0.214
					l1.898-13.138c1.593-4.359,4.645-16.108,4.675-16.226c0.026-0.102,0.13-0.162,0.23-0.136c0.101,0.026,0.161,0.13,0.136,0.23
					c-0.031,0.118-3.086,11.884-4.677,16.223l-1.889,13.1C141.212,359.015,141.131,359.083,141.039,359.083z"/>
				<path style="fill:#2B1225;" d="M143.083,345.58c-0.038,0-0.077-0.012-0.111-0.035c-0.084-0.06-0.103-0.178-0.043-0.264
					c0.04-0.054,3.945-5.499,5.452-9.374c0.038-0.099,0.146-0.146,0.245-0.107c0.097,0.037,0.145,0.146,0.107,0.243
					c-1.524,3.92-5.458,9.403-5.497,9.459C143.199,345.553,143.141,345.58,143.083,345.58z"/>
				<path style="fill:#2B1225;" d="M149.214,334.411c-0.015,0-0.032-0.001-0.048-0.006c-0.101-0.027-0.161-0.13-0.135-0.231
					l0.365-1.386c0.027-0.1,0.128-0.165,0.23-0.134c0.101,0.026,0.161,0.13,0.135,0.231l-0.365,1.386
					C149.374,334.355,149.298,334.411,149.214,334.411z"/>
				<path style="fill:#D4D4D4;" d="M135.906,468.913c-0.09,0.664-0.271,1.222-0.558,1.509c-1.026,1.026-12.853,0.739-14.316,0.453
					c-1.418-0.302-1.735-0.453-1.871-2.534c0.769,0.362,2.353,0.86,5.235,0.92C128.197,469.351,133.447,469.426,135.906,468.913z"/>
			</g>
		</g>
		<g>
			<path style="fill:#FDBB59;" d="M128.192,231.302c0,0-10.852,5.061-12.409,7.007c-1.557,1.947-0.438,29.198,3.066,48.468
				c0,0-6.618,38.346-6.813,39.514c0,0,16.351,6.229,50.025-1.557c0,0-5.061-39.319-5.255-41.655
				c-0.195-2.336,4.477-19.076,4.282-22.385c-0.195-3.309-7.591-22.19-8.954-24.72c-1.362-2.531-8.759-4.866-13.041-5.45
				C134.81,229.939,128.192,231.302,128.192,231.302z"/>
			<path style="fill:#B3823B;" d="M159.146,301.946c-1.163-9.15-2.252-17.808-2.34-18.867c-0.166-1.993,3.202-14.448,4.075-20.124
				c-3.592,1.702-9.208,4.36-10.888,5.135c-2.53,1.168-5.061-0.779-9.148-1.362c-4.088-0.584-7.397,0.195-10.317-0.584
				c-2.92-0.779-8.954-5.061-8.954-5.061l-4.435,14.291c0.486,3.935,1.056,7.808,1.71,11.403c0,0,19.66,8.565,22.19,9.927
				c2.53,1.363,10.9,1.363,10.9,1.363l-1.752,3.114L159.146,301.946z"/>
			<path style="fill:#DA9B7C;" d="M142.2,231.132c-1.118-0.272-2.186-0.483-3.107-0.608c-4.282-0.584-10.9,0.779-10.9,0.779
				s-0.715,0.334-1.798,0.859c1.636,2.098,6.821,8.167,12.017,8.046C144.161,240.073,144.148,234.436,142.2,231.132z"/>
			<path style="fill:#FFFFFF;" d="M155.557,244.369c-0.152,0-0.295-0.092-0.352-0.242c-1.042-2.706-1.766-4.508-1.766-4.509
				c-0.078-0.193,0.016-0.413,0.209-0.491c0.192-0.075,0.413,0.015,0.491,0.209c0,0,0.726,1.806,1.771,4.52
				c0.075,0.195-0.022,0.413-0.216,0.488C155.648,244.361,155.602,244.369,155.557,244.369z"/>
			<path style="fill:#FFFFFF;" d="M161.088,262.531c-0.028,0-0.057-0.003-0.086-0.01c-0.203-0.047-0.329-0.25-0.281-0.453
				c0.359-1.529-0.564-4.241-0.574-4.268c-0.938-2.845-2.118-6.176-3.512-9.902c-0.073-0.195,0.027-0.413,0.222-0.486
				c0.191-0.074,0.412,0.026,0.485,0.222c1.397,3.735,2.581,7.075,3.52,9.925c0.04,0.114,1.002,2.94,0.593,4.681
				C161.415,262.414,161.26,262.531,161.088,262.531z"/>
		</g>
		<g>
			<polygon style="fill:#FFFFFF;" points="152.318,298.918 169.983,261.4 198.742,261.4 181.078,298.918 			"/>
			<path style="fill:#DA9B7C;" d="M187.355,291.473c0,0-2.92,0.73-3.65,0.438c-0.73-0.292-1.314-2.92-1.606-3.796
				c-0.292-0.876-0.292-2.774,0-3.212c0.292-0.438,3.212-1.752,4.38-1.898c1.168-0.146,3.65-0.146,3.796,1.168
				C190.421,285.487,190.421,288.407,187.355,291.473z"/>
			<path style="fill:#B3823B;" d="M109.749,270.427c0,0,5.273,2.876,10.998-0.438c5.548-3.212,6.91-4.963,6.375-7.153
				c-0.535-2.19-12.068-1.898-13.674-0.146C111.842,264.441,108.825,267.361,109.749,270.427z"/>
			<path style="fill:#DA9B7C;" d="M127.122,262.835l2.677,10.949c0,0,3.942,1.752,5.985,2.92c2.044,1.168,14.783,4.842,20.184,5.718
				c0,0,2.628-1.752,4.38-1.606c1.752,0.146,7.008,3.942,7.591,5.255c0.584,1.314-0.876,3.358-1.314,4.088
				c-0.438,0.73-3.066,2.774-5.402,2.628c-2.336-0.146-6.277-1.606-7.299-2.19c-1.022-0.584-2.336-1.752-2.336-1.752
				s-30.987-7.47-31.863-7.908c-0.876-0.438-2.482-3.504-2.482-3.504l-2.774-13.139L127.122,262.835z"/>
			<path style="fill:#FDBB59;" d="M115.783,238.309c0,0,3.747-1.168,6.083,3.212c2.336,4.38,4.38,14.015,5.255,21.314
				c0,0-14.891-0.292-17.372,7.591c0,0-3.769-11.819-1.606-22.044C109.749,240.791,115.783,238.309,115.783,238.309z"/>
			<path style="fill:#FFFFFF;" d="M121.351,241.441c-0.125,0-0.248-0.063-0.32-0.177c-0.801-1.281-1.459-1.893-1.465-1.899
				c-0.152-0.141-0.163-0.379-0.022-0.533c0.141-0.152,0.38-0.161,0.532-0.023c0.029,0.027,0.733,0.678,1.594,2.054
				c0.11,0.177,0.057,0.41-0.119,0.52C121.489,241.423,121.42,241.441,121.351,241.441z"/>
			<path style="fill:#FFFFFF;" d="M126.634,259.903c-0.18,0-0.34-0.13-0.371-0.315c-0.395-2.37-1.767-8.611-3.105-13.391
				c-0.104-0.374-0.215-0.731-0.33-1.073c-0.066-0.197,0.04-0.411,0.237-0.477c0.2-0.065,0.411,0.04,0.477,0.237
				c0.119,0.353,0.233,0.723,0.342,1.109c1.345,4.805,2.726,11.085,3.123,13.471c0.034,0.206-0.104,0.4-0.31,0.434
				C126.676,259.902,126.655,259.903,126.634,259.903z"/>
		</g>
		<g>
			<path style="fill:#3D1D37;" d="M126.051,192.331c0,0-3.796-7.009-11.095-4.896c-7.299,2.114-11.484,9.413-11.874,15.934
				c-0.389,6.521-0.779,13.625-2.822,16.351l3.699-2.725c0,0-1.752,15.085,6.131,20.049c0,0-2.725-8.467,1.557-15.767
				c4.282-7.299,8.485-9.355,10.471-12.902C124.105,204.83,128.29,195.989,126.051,192.331z"/>
			<path style="fill:#DA9B7C;" d="M140.16,232.465c0,0-3.726,1.026-6.713,1.252c-2.987,0.211-7.06-1.554-7.06-1.554
				s0.709-2.036,0.935-2.911c0.091-0.347,0.211-1.041,0.332-1.735c0.166-1.026,0.317-2.052,0.317-2.052l11.827,0.95l0.181,3.032
				L140.16,232.465z"/>
			<path style="fill:#CE7B51;" d="M139.979,229.448c-0.709,0.588-1.523,1.056-2.444,1.267c-2.64,0.573-7.437-1.825-9.881-3.198
				c0.166-1.026,0.317-2.052,0.317-2.052l11.827,0.95L139.979,229.448z"/>
			<path style="fill:#3D1D37;" d="M152.037,201.91c0,0-0.779,6.326-2.044,10.122c-1.265,3.796-1.07,5.061-1.752,7.202
				c-0.681,2.141-2.046,6.379-4.867,9.564c0,0,1.364-5.477,1.266-10.148c-0.097-4.672,4.088-11.679,4.088-11.679L152.037,201.91z"/>
			<path style="fill:#DA9B7C;" d="M124.105,217.482c0,0,0.779,5.45,1.655,6.813c0.876,1.363,7.883,3.99,9.343,4.477
				c1.46,0.487,10.024-5.839,10.706-7.591c0.681-1.752,0.097-4.477,0.584-5.937c0.487-1.46,1.849-3.601,2.336-8.273
				c0.486-4.672-3.699-17.032-12.068-15.183c-8.37,1.849-10.414,2.628-11.874,8.759
				C123.326,206.679,124.105,217.482,124.105,217.482z"/>
			<path style="fill:#DF6357;" d="M119.141,205.316c0,0-1.971-1.168-1.898-4.234c0.073-3.066,2.044-6.643,3.796-8.102
				c1.752-1.46,3.577-2.102,4.599-1.379c1.022,0.722,0.414,5.134,0.414,5.134L119.141,205.316z"/>
			<path style="fill:#3D1D37;" d="M147.705,193.832c0,0-5.345-4.672-13.889-4.38c-8.544,0.292-13.605,4.672-14.967,11.095
				c-1.363,6.423-0.32,12.847,1.738,16.837c2.058,3.99,5.464,5.548,5.464,5.548s-0.979-10.998,1.603-14.696
				c2.582-3.698,7.643-9.441,10.952-10.414C141.915,196.849,147.705,193.832,147.705,193.832z"/>
			<path style="fill:#DA9B7C;" d="M126.051,212.908c0,0-2.336-2.822-3.504-0.292c-1.168,2.53,0.195,4.282,2.336,5.645
				L126.051,212.908z"/>
			<path style="fill:#3D1D37;" d="M127.608,230.231c0,0-3.893-7.105-3.504-14.307c0.389-7.202,0.973-13.139,5.061-17.908
				c4.088-4.769,5.645-4.964,8.175-5.353c2.53-0.389,4.866,0.779,4.866,0.779s3.504-1.07,6.034,0c2.53,1.071,4.38,5.158,3.796,8.467
				c-0.584,3.309-2.73,8.366-4.431,10.266c0,0-6.178-0.533-10.752-4.134c0,0-2.92,1.071-6.521,3.212
				C130.333,211.253,125.857,218.358,127.608,230.231z"/>
		</g>
	</g>
	<g>
		<g>
			<path style="fill:#9C9C9C;" d="M364.692,462.258H230.383V309.852c0-4.366,3.539-7.906,7.906-7.906h118.497
				c4.366,0,7.906,3.54,7.906,7.906V462.258z"/>
			<g>
				<g>
					<path style="fill:#D4D4D4;" d="M309.409,313.426c-0.312,0-0.566-0.253-0.566-0.566v-2.344c0-1.911-0.683-3.759-1.923-5.206
						c-0.203-0.237-0.176-0.595,0.061-0.798c0.239-0.202,0.594-0.175,0.798,0.062c1.416,1.651,2.195,3.763,2.195,5.943v2.344
						C309.975,313.173,309.722,313.426,309.409,313.426z"/>
				</g>
				<g>
					<path style="fill:#D4D4D4;" d="M309.409,351.966c-0.312,0-0.566-0.253-0.566-0.566v-30.949c0-0.312,0.253-0.566,0.566-0.566
						c0.312,0,0.566,0.254,0.566,0.566V351.4C309.975,351.712,309.722,351.966,309.409,351.966z"/>
				</g>
			</g>
			<rect x="317.586" y="340.5" style="fill:#475066;" width="30.755" height="53.918"/>
			<g>
				<rect x="317.586" y="394.418" style="fill:#D4D4D4;" width="35.816" height="7.786"/>
				<rect x="353.402" y="394.418" style="fill:#707070;" width="35.815" height="7.786"/>
			</g>
			<g>
				<rect x="324.01" y="380.988" style="fill:#F2F0F7;" width="27.251" height="13.431"/>
				<rect x="351.066" y="380.988" style="fill:#D4D4D4;" width="27.251" height="13.431"/>
				<path style="fill:#707070;" d="M345.129,386.425h-17.957c-0.208,0-0.377-0.169-0.377-0.377c0-0.208,0.169-0.377,0.377-0.377
					h17.957c0.208,0,0.377,0.169,0.377,0.377C345.507,386.255,345.338,386.425,345.129,386.425z"/>
				<path style="fill:#707070;" d="M373.669,388.081h-17.956c-0.208,0-0.377-0.169-0.377-0.377c0-0.208,0.169-0.377,0.377-0.377
					h17.956c0.208,0,0.377,0.169,0.377,0.377C374.046,387.911,373.877,388.081,373.669,388.081z"/>
				<path style="fill:#707070;" d="M336.808,390.61h-9.635c-0.208,0-0.377-0.169-0.377-0.377s0.169-0.377,0.377-0.377h9.635
					c0.208,0,0.377,0.169,0.377,0.377S337.016,390.61,336.808,390.61z"/>
				<path style="fill:#707070;" d="M345.129,390.61h-3.502c-0.209,0-0.377-0.169-0.377-0.377s0.169-0.377,0.377-0.377h3.502
					c0.208,0,0.377,0.169,0.377,0.377S345.338,390.61,345.129,390.61z"/>
			</g>
		</g>
		<g>
			<path style="fill:#D4D4D4;" d="M304.741,310.517v151.744H170.436V310.517c0-4.737,3.832-8.568,8.569-8.568h117.168
				C300.909,301.949,304.741,305.78,304.741,310.517z"/>
			<g>
				<rect x="269.818" y="319.885" style="fill:#707070;" width="1.131" height="142.376"/>
			</g>
			<g>
				<path style="fill:#707070;" d="M216.952,448.759h-3.844h-3.844v0.49c0,1.216,0.986,2.202,2.202,2.202h1.642h3.844h1.642
					c1.216,0,2.202-0.986,2.202-2.202v-0.49H216.952z"/>
				<g>
					<rect x="170.436" y="448.201" style="fill:#707070;" width="99.94" height="1.131"/>
				</g>
			</g>
			<g>
				<path style="fill:#707070;" d="M216.952,439.674h-3.844h-3.844v0.49c0,1.216,0.986,2.202,2.202,2.202h1.642h3.844h1.642
					c1.216,0,2.202-0.986,2.202-2.202v-0.49H216.952z"/>
				<g>
					<rect x="170.436" y="439.104" style="fill:#707070;" width="99.94" height="1.131"/>
				</g>
			</g>
			<g>
				<g>
					<rect x="170.436" y="430.023" style="fill:#707070;" width="99.94" height="1.131"/>
				</g>
				<path style="fill:#707070;" d="M216.952,430.59h-3.844h-3.844v0.49c0,1.216,0.986,2.202,2.202,2.202h1.642h3.844h1.642
					c1.216,0,2.202-0.986,2.202-2.202v-0.49H216.952z"/>
			</g>
			<g>
				<g>
					<rect x="170.436" y="319.327" style="fill:#707070;" width="134.305" height="1.132"/>
				</g>
				<path style="fill:#707070;" d="M228.072,319.886h-4.939h-4.939v0.629c0,1.563,1.267,2.829,2.829,2.829h2.11h4.939h2.11
					c1.563,0,2.829-1.267,2.829-2.829v-0.629H228.072z"/>
			</g>
			<g>
				<path style="fill:#FDBB59;" d="M186.083,356.559h-0.306c-1.004,0-1.818-0.814-1.818-1.818v-10.379
					c0-1.004,0.814-1.818,1.818-1.818h0.306c1.004,0,1.818,0.814,1.818,1.818v10.379
					C187.901,355.745,187.087,356.559,186.083,356.559z"/>
				<path style="fill:#DF6357;" d="M193.821,356.559h-0.306c-1.004,0-1.818-0.814-1.818-1.818v-10.379
					c0-1.004,0.814-1.818,1.818-1.818h0.306c1.004,0,1.818,0.814,1.818,1.818v10.379
					C195.638,355.745,194.825,356.559,193.821,356.559z"/>
				<path style="fill:#DF6357;" d="M201.558,356.559h-0.306c-1.004,0-1.818-0.814-1.818-1.818v-10.379
					c0-1.004,0.814-1.818,1.818-1.818h0.306c1.004,0,1.818,0.814,1.818,1.818v10.379
					C203.376,355.745,202.562,356.559,201.558,356.559z"/>
			</g>
			<g>
				<rect x="275.931" y="328.65" style="fill:#F0F0F0;" width="15.183" height="59.621"/>
				<rect x="275.931" y="397.034" style="fill:#F0F0F0;" width="15.183" height="24.051"/>
			</g>
		</g>
		<g>
			<rect x="216.369" y="293.492" style="fill:#D4D4D4;" width="14.015" height="8.456"/>
			
				<rect x="230.383" y="293.492" transform="matrix(-1 -1.224647e-16 1.224647e-16 -1 463.1998 595.4411)" style="fill:#707070;" width="2.433" height="8.456"/>
		</g>
		<g>
			<polygon style="fill:#707070;" points="266.891,249.842 257.693,293.492 198.742,293.492 207.94,249.842 			"/>
			<polygon style="fill:#D4D4D4;" points="263.786,249.842 254.589,293.492 195.638,293.492 204.835,249.842 			"/>
			<polygon style="fill:#FFFFFF;" points="197.87,291.682 206.305,251.653 261.555,251.653 253.121,291.682 			"/>
			<g>
				<polygon style="fill:#475066;" points="252.748,261.663 252.25,264.001 210.539,264.001 211.037,261.663 				"/>
				<polygon style="fill:#475066;" points="241.087,266.249 240.604,268.587 209.573,268.587 210.056,266.249 				"/>
				<polygon style="fill:#475066;" points="246.155,270.82 245.658,273.158 208.608,273.158 209.106,270.82 				"/>
				<polygon style="fill:#DF6357;" points="236.938,275.406 236.44,277.729 207.643,277.729 208.14,275.406 				"/>
				<polygon style="fill:#475066;" points="244.888,279.977 244.391,282.315 206.677,282.315 207.175,279.977 				"/>
			</g>
		</g>
	</g>
</g>
</svg>
