<svg width="26" height="19" viewBox="0 0 26 19" fill="none" xmlns="http://www.w3.org/2000/svg">
<path d="M1.84375 14.375V2.125C1.84375 1.71889 2.00508 1.32941 2.29224 1.04224C2.57941 0.755078 2.96889 0.59375 3.375 0.59375H22.625C23.0311 0.59375 23.4206 0.755078 23.7078 1.04224C23.9949 1.32941 24.1562 1.71889 24.1562 2.125V14.375C24.1562 14.549 24.0871 14.716 23.964 14.839C23.841 14.9621 23.674 15.0312 23.5 15.0312C23.326 15.0312 23.159 14.9621 23.036 14.839C22.9129 14.716 22.8438 14.549 22.8438 14.375V2.125C22.8438 2.06698 22.8207 2.01134 22.7797 1.97032C22.7387 1.9293 22.683 1.90625 22.625 1.90625H3.375C3.31698 1.90625 3.26134 1.9293 3.22032 1.97032C3.1793 2.01134 3.15625 2.06698 3.15625 2.125V14.375C3.15625 14.549 3.08711 14.716 2.96404 14.839C2.84097 14.9621 2.67405 15.0312 2.5 15.0312C2.32595 15.0312 2.15903 14.9621 2.03596 14.839C1.91289 14.716 1.84375 14.549 1.84375 14.375ZM25.9062 17.875C25.9062 18.049 25.8371 18.216 25.714 18.339C25.591 18.4621 25.424 18.5312 25.25 18.5312H0.75C0.575952 18.5312 0.409032 18.4621 0.285961 18.339C0.16289 18.216 0.09375 18.049 0.09375 17.875C0.09375 17.701 0.16289 17.534 0.285961 17.411C0.409032 17.2879 0.575952 17.2188 0.75 17.2188H11.4688V14.375C11.4688 14.201 11.5379 14.034 11.661 13.911C11.784 13.7879 11.951 13.7188 12.125 13.7188H19.125C19.299 13.7188 19.466 13.7879 19.589 13.911C19.7121 14.034 19.7812 14.201 19.7812 14.375V17.2188H25.25C25.424 17.2188 25.591 17.2879 25.714 17.411C25.8371 17.534 25.9062 17.701 25.9062 17.875ZM12.7812 17.2188H18.4688V15.0312H12.7812V17.2188Z" fill="white"/>
</svg>
